<?xml version="1.0" encoding="UTF-8"?>
<!DOCTYPE svg PUBLIC "-//W3C//DTD SVG 1.1//EN" "http://www.w3.org/Graphics/SVG/1.1/DTD/svg11.dtd">
<!-- Creator: CorelDRAW 2020 (64-Bit) -->
<svg xmlns="http://www.w3.org/2000/svg" xml:space="preserve" width="650px" height="290px" version="1.1" style="shape-rendering:geometricPrecision; text-rendering:geometricPrecision; image-rendering:optimizeQuality; fill-rule:evenodd; clip-rule:evenodd"
viewBox="0 0 650 290"
 xmlns:xlink="http://www.w3.org/1999/xlink"
 xmlns:xodm="http://www.corel.com/coreldraw/odm/2003">
 <defs>
  <style type="text/css">
   <![CDATA[
    .fil0 {fill:#FEFEFE;fill-rule:nonzero}
   ]]>
  </style>
 </defs>
 <g id="Capa_x0020_1">
  <metadata id="CorelCorpID_0Corel-Layer"/>
  <g id="_1893398863680">
   <path class="fil0" d="M57.12 199.44l0 85.54 -22.28 0 0 -35.9 -6.49 0 0 35.9 -22.27 0 0 -85.54 22.27 0 0 30.6 6.49 0 0 -30.6 22.28 0zm8.99 0l37.09 0 0 17.08 -14.81 0 0 16.33 13.84 0 0 16.23 -13.84 0 0 18.81 16.33 0 0 17.09 -38.61 0 0 -85.54zm44.94 0l15.73 0c10.49,0 17.59,0.39 21.3,1.2 3.72,0.82 6.75,2.89 9.09,6.22 2.34,3.32 3.51,8.64 3.51,15.92 0,6.65 -0.83,11.12 -2.49,13.41 -1.64,2.29 -4.9,3.66 -9.76,4.11 4.39,1.1 7.37,2.56 8.88,4.4 1.52,1.82 2.45,3.51 2.81,5.04 0.38,1.53 0.56,5.75 0.56,12.65l0 22.59 -20.65 0 0 -28.46c0,-4.58 -0.36,-7.41 -1.08,-8.51 -0.71,-1.1 -2.58,-1.64 -5.63,-1.64l0 38.61 -22.27 0 0 -85.54zm22.27 14.6l0 19.03c2.49,0 4.22,-0.34 5.21,-1.03 0.99,-0.68 1.5,-2.92 1.5,-6.68l0 -4.71c0,-2.72 -0.49,-4.5 -1.45,-5.35 -0.95,-0.85 -2.72,-1.26 -5.26,-1.26zm35.96 -14.6l15.73 0c10.49,0 17.6,0.39 21.31,1.2 3.71,0.82 6.74,2.89 9.08,6.22 2.35,3.32 3.52,8.64 3.52,15.92 0,6.65 -0.83,11.12 -2.49,13.41 -1.64,2.29 -4.9,3.66 -9.77,4.11 4.4,1.1 7.37,2.56 8.89,4.4 1.51,1.82 2.45,3.51 2.81,5.04 0.38,1.53 0.56,5.75 0.56,12.65l0 22.59 -20.66 0 0 -28.46c0,-4.58 -0.36,-7.41 -1.08,-8.51 -0.7,-1.1 -2.58,-1.64 -5.62,-1.64l0 38.61 -22.28 0 0 -85.54zm22.28 14.6l0 19.03c2.48,0 4.21,-0.34 5.21,-1.03 0.99,-0.68 1.49,-2.92 1.49,-6.68l0 -4.71c0,-2.72 -0.49,-4.5 -1.44,-5.35 -0.96,-0.85 -2.72,-1.26 -5.26,-1.26zm74.33 -14.6l12.72 85.54 -22.73 0 -1.2 -15.36 -8.03 0 -1.2 15.36 -23.02 0 11.28 -85.54 32.18 0zm-11.81 55.04c-1.06,-9.69 -2.18,-21.7 -3.37,-36.03 -2.2,16.44 -3.59,28.44 -4.18,36.03l7.55 0zm96.91 -55.04l0 85.54 -19.46 0 -0.06 -57.75 -7.73 57.75 -13.62 0 -8.17 -56.45 -0.05 56.45 -19.47 0 0 -85.54 28.75 0c0.81,5.17 1.69,11.26 2.65,18.22l3.15 21.72 5.07 -39.94 28.94 0zm31.24 0l0 85.54 -22.28 0 0 -85.54 22.28 0zm8.88 0l37.1 0 0 17.08 -14.82 0 0 16.33 13.84 0 0 16.23 -13.84 0 0 18.81 16.33 0 0 17.09 -38.61 0 0 -85.54zm94.57 0l0 85.54 -19.46 0 -11.57 -38.9 0 38.9 -18.6 0 0 -85.54 18.6 0 12.43 38.51 0 -38.51 18.6 0zm53.7 0l0 17.08 -13.09 0 0 68.46 -22.27 0 0 -68.46 -13.2 0 0 -17.08 48.56 0zm39.11 0l12.72 85.54 -22.72 0 -1.21 -15.36 -8.02 0 -1.21 15.36 -23.02 0 11.29 -85.54 32.17 0zm-11.81 55.04c-1.06,-9.69 -2.18,-21.7 -3.37,-36.03 -2.2,16.44 -3.58,28.44 -4.18,36.03l7.55 0zm75.4 -29.09l-20.66 0 0 -6.32c0,-2.96 -0.27,-4.85 -0.79,-5.66 -0.52,-0.81 -1.39,-1.21 -2.62,-1.21 -1.33,0 -2.34,0.54 -3.02,1.64 -0.69,1.08 -1.03,2.72 -1.03,4.94 0,2.84 0.4,4.99 1.17,6.43 0.76,1.43 2.85,3.17 6.29,5.23 9.86,5.89 16.08,10.74 18.64,14.51 2.58,3.76 3.85,9.84 3.85,18.2 0,6.09 -0.72,10.58 -2.14,13.48 -1.42,2.89 -4.16,5.3 -8.25,7.25 -4.08,1.96 -8.82,2.94 -14.24,2.94 -5.95,0 -11.02,-1.14 -15.23,-3.39 -4.2,-2.25 -6.94,-5.12 -8.26,-8.6 -1.3,-3.5 -1.94,-8.45 -1.94,-14.85l0 -5.61 20.65 0 0 10.4c0,3.21 0.29,5.27 0.87,6.19 0.57,0.92 1.6,1.37 3.08,1.37 1.48,0 2.58,-0.58 3.3,-1.75 0.72,-1.16 1.08,-2.89 1.08,-5.16 0,-5.03 -0.69,-8.32 -2.06,-9.86 -1.42,-1.55 -4.88,-4.14 -10.4,-7.78 -5.51,-3.66 -9.15,-6.33 -10.96,-7.99 -1.78,-1.66 -3.28,-3.94 -4.45,-6.86 -1.17,-2.92 -1.76,-6.66 -1.76,-11.2 0,-6.54 0.83,-11.33 2.5,-14.36 1.68,-3.03 4.36,-5.39 8.09,-7.1 3.74,-1.72 8.22,-2.56 13.5,-2.56 5.77,0 10.67,0.94 14.75,2.79 4.05,1.88 6.74,4.22 8.05,7.07 1.32,2.83 1.99,7.64 1.99,14.43l0 3.39z"/>
   <path class="fil0" d="M86.7 6.39l23.6 158.7 -42.16 0 -2.24 -28.49 -14.88 0 -2.24 28.49 -42.7 0 20.93 -158.7 59.69 0zm-21.91 102.13c-1.97,-17.99 -4.04,-40.27 -6.25,-66.85 -4.08,30.5 -6.65,52.77 -7.76,66.85l14.01 0zm93.94 -102.13l0 127.01 24.87 0 0 31.69 -66.21 0 0 -158.7 41.34 0zm126.03 158.7l0 19.27 -31 0c-7.46,0 -12.74,-0.61 -15.78,-1.78 -3.05,-1.17 -5.12,-2.91 -6.19,-5.18 -1.07,-2.27 -1.61,-6.39 -1.61,-12.31 -9.36,-0.26 -17.38,-2.7 -24.14,-7.35 -6.75,-4.62 -11.2,-10.54 -13.34,-17.66 -2.17,-7.15 -3.24,-17.85 -3.24,-32.1l0 -49.05c0,-10.8 0.63,-19 1.9,-24.65 1.27,-5.65 3.91,-10.97 7.89,-15.95 3.98,-5.02 9.1,-8.79 15.35,-11.34 6.25,-2.54 13.21,-3.81 20.83,-3.81 9.2,0 17.43,1.58 24.62,4.72 7.22,3.14 12.6,7.12 16.15,11.94 3.54,4.84 5.88,9.86 6.95,15.04 1.07,5.22 1.61,12.94 1.61,23.18l0 51.56c0,14.11 -0.71,23.71 -2.08,28.72 -1.37,5.05 -3.98,9.03 -7.85,12.01 -3.92,2.97 -9.1,5.25 -15.55,6.82 0.2,3.48 0.93,5.68 2.2,6.59 1.27,0.9 4.28,1.33 9.03,1.33l14.25 0zm-41.33 -117.8c0,-7.36 -0.4,-12.07 -1.21,-14.15 -0.8,-2.04 -2.44,-3.07 -4.91,-3.07 -2.11,0 -3.71,0.83 -4.85,2.51 -1.11,1.63 -1.67,6.55 -1.67,14.71l0 74.07c0,9.19 0.36,14.88 1.1,17.02 0.74,2.17 2.44,3.24 5.12,3.24 2.74,0 4.51,-1.24 5.28,-3.71 0.77,-2.48 1.14,-8.39 1.14,-17.72l0 -72.9zm150.54 -40.9l0 106.11c0,12.03 -0.4,20.49 -1.17,25.34 -0.8,4.88 -3.11,9.9 -6.96,15.02 -3.84,5.15 -8.93,9.02 -15.21,11.67 -6.32,2.64 -13.75,3.98 -22.31,3.98 -9.46,0 -17.82,-1.58 -25.04,-4.72 -7.26,-3.14 -12.67,-7.22 -16.25,-12.24 -3.61,-5.05 -5.72,-10.36 -6.39,-15.95 -0.63,-5.58 -0.97,-17.35 -0.97,-35.24l0 -93.97 41.33 0 0 119.05c0,6.92 0.37,11.37 1.11,13.27 0.73,1.94 2.23,2.91 4.47,2.91 2.55,0 4.22,-1.07 4.95,-3.18 0.74,-2.14 1.11,-7.15 1.11,-15.04l0 -117.01 41.33 0zm57.35 0l0 158.7 -41.33 0 0 -158.7 41.33 0zm57.81 0l0 127.01 24.88 0 0 31.69 -66.21 0 0 -158.7 41.33 0zm111.19 0l23.61 158.7 -42.17 0 -2.24 -28.49 -14.88 0 -2.24 28.49 -42.7 0 20.93 -158.7 59.69 0zm-21.9 102.13c-1.98,-17.99 -4.05,-40.27 -6.26,-66.85 -4.08,30.5 -6.65,52.77 -7.76,66.85l14.02 0z"/>
  </g>
 </g>
</svg>
