<?xml version="1.0" encoding="UTF-8"?>
<!DOCTYPE svg PUBLIC "-//W3C//DTD SVG 1.1//EN" "http://www.w3.org/Graphics/SVG/1.1/DTD/svg11.dtd">
<!-- Creator: CorelDRAW 2020 (64-Bit) -->
<svg xmlns="http://www.w3.org/2000/svg" xml:space="preserve" width="300px" height="300px" version="1.1" style="shape-rendering:geometricPrecision; text-rendering:geometricPrecision; image-rendering:optimizeQuality; fill-rule:evenodd; clip-rule:evenodd"
viewBox="0 0 300 300"
 xmlns:xlink="http://www.w3.org/1999/xlink"
 xmlns:xodm="http://www.corel.com/coreldraw/odm/2003">
 <defs>
  <style type="text/css">
   <![CDATA[
    .str0 {stroke:#FCD526;stroke-width:0.9;stroke-miterlimit:22.9256}
    .fil2 {fill:#FFF212}
    .fil4 {fill:#3E4095}
    .fil1 {fill:#373435;fill-rule:nonzero}
    .fil3 {fill:#3E4095;fill-rule:nonzero}
    .fil0 {fill:white;fill-rule:nonzero}
   ]]>
  </style>
 </defs>
 <g id="Capa_x0020_1">
  <metadata id="CorelCorpID_0Corel-Layer"/>
  <path class="fil0" d="M44.96 279.88l0 -25.15 17.28 0 0 4.25 -12.19 0 0 5.97 10.54 0 0 4.25 -10.54 0 0 10.68 -5.09 0zm21.46 0l0 -25.15 18.61 0 0 4.25 -13.52 0 0 5.58 12.57 0 0 4.25 -12.57 0 0 6.82 14.02 0 0 4.25 -19.11 0zm23.43 0l0 -25.15 10.69 0c2.69,0 4.64,0.23 5.86,0.68 1.22,0.45 2.2,1.25 2.93,2.41 0.73,1.15 1.1,2.47 1.1,3.96 0,1.89 -0.55,3.45 -1.66,4.67 -1.11,1.24 -2.76,2.01 -4.95,2.33 1.09,0.64 1.99,1.34 2.7,2.11 0.71,0.76 1.67,2.13 2.88,4.08l3.07 4.91 -6.07 0 -3.65 -5.49c-1.3,-1.95 -2.2,-3.18 -2.68,-3.69 -0.48,-0.5 -0.99,-0.86 -1.53,-1.04 -0.55,-0.19 -1.4,-0.28 -2.57,-0.28l-1.03 0 0 10.5 -5.09 0zm5.09 -14.51l3.76 0c2.43,0 3.95,-0.1 4.56,-0.31 0.6,-0.2 1.08,-0.56 1.42,-1.06 0.35,-0.51 0.51,-1.14 0.51,-1.89 0,-0.85 -0.22,-1.53 -0.67,-2.06 -0.45,-0.52 -1.09,-0.85 -1.91,-0.98 -0.42,-0.06 -1.65,-0.09 -3.71,-0.09l-3.96 0 0 6.39zm20.27 14.51l0 -25.15 10.7 0c2.68,0 4.64,0.23 5.86,0.68 1.22,0.45 2.2,1.25 2.93,2.41 0.73,1.15 1.1,2.47 1.1,3.96 0,1.89 -0.56,3.45 -1.66,4.67 -1.11,1.24 -2.76,2.01 -4.96,2.33 1.09,0.64 2,1.34 2.7,2.11 0.72,0.76 1.68,2.13 2.89,4.08l3.06 4.91 -6.07 0 -3.64 -5.49c-1.31,-1.95 -2.2,-3.18 -2.69,-3.69 -0.48,-0.5 -0.99,-0.86 -1.52,-1.04 -0.55,-0.19 -1.4,-0.28 -2.57,-0.28l-1.04 0 0 10.5 -5.09 0zm5.09 -14.51l3.76 0c2.44,0 3.95,-0.1 4.56,-0.31 0.61,-0.2 1.09,-0.56 1.43,-1.06 0.34,-0.51 0.51,-1.14 0.51,-1.89 0,-0.85 -0.23,-1.53 -0.68,-2.06 -0.45,-0.52 -1.09,-0.85 -1.91,-0.98 -0.41,-0.06 -1.65,-0.09 -3.7,-0.09l-3.97 0 0 6.39zm20.28 14.51l0 -25.15 18.62 0 0 4.25 -13.53 0 0 5.58 12.58 0 0 4.25 -12.58 0 0 6.82 14.02 0 0 4.25 -19.11 0zm29.08 0l0 -20.9 -7.44 0 0 -4.25 19.95 0 0 4.25 -7.41 0 0 20.9 -5.1 0zm15.8 0l0 -25.15 18.62 0 0 4.25 -13.52 0 0 5.58 12.57 0 0 4.25 -12.57 0 0 6.82 14.01 0 0 4.25 -19.11 0zm23.43 0l0 -25.15 10.7 0c2.68,0 4.64,0.23 5.86,0.68 1.22,0.45 2.19,1.25 2.93,2.41 0.73,1.15 1.1,2.47 1.1,3.96 0,1.89 -0.56,3.45 -1.66,4.67 -1.11,1.24 -2.76,2.01 -4.96,2.33 1.09,0.64 2,1.34 2.7,2.11 0.72,0.76 1.68,2.13 2.89,4.08l3.06 4.91 -6.07 0 -3.64 -5.49c-1.31,-1.95 -2.2,-3.18 -2.69,-3.69 -0.48,-0.5 -0.99,-0.86 -1.52,-1.04 -0.55,-0.19 -1.4,-0.28 -2.57,-0.28l-1.03 0 0 10.5 -5.1 0zm5.1 -14.51l3.75 0c2.44,0 3.96,-0.1 4.56,-0.31 0.61,-0.2 1.09,-0.56 1.43,-1.06 0.34,-0.51 0.51,-1.14 0.51,-1.89 0,-0.85 -0.23,-1.53 -0.68,-2.06 -0.45,-0.52 -1.09,-0.85 -1.9,-0.98 -0.42,-0.06 -1.66,-0.09 -3.71,-0.09l-3.96 0 0 6.39zm20.09 14.51l0 -25.15 5.1 0 0 25.15 -5.1 0zm-0.81 -27.43l2.39 -5.13 5.38 0 -4.74 5.13 -3.03 0zm33.4 27.43l-5.48 0 -2.17 -5.73 -10.09 0 -2.09 5.73 -5.39 0 9.77 -25.15 5.38 0 10.07 25.15zm-9.31 -9.98l-3.49 -9.31 -3.4 9.31 6.89 0z"/>
  <path class="fil0" d="M25.66 210.94l0 19.51 3.71 0 0 5.1 -3.71 0 0 6.34 -6.22 0 0 -6.34 -13.49 0 0 -5.34c1.2,-1.34 2.43,-2.8 3.72,-4.39 1.28,-1.59 2.52,-3.22 3.71,-4.91 1.19,-1.68 2.31,-3.37 3.34,-5.08 1.02,-1.71 1.9,-3.33 2.62,-4.89l6.32 0zm-13.6 19.51l7.38 0 0 -10.81c-0.5,0.93 -1.04,1.88 -1.63,2.84 -0.59,0.96 -1.21,1.9 -1.86,2.83 -0.65,0.93 -1.3,1.82 -1.97,2.69 -0.66,0.87 -1.3,1.69 -1.92,2.45zm60.99 11.44l-6.99 0 0 -12.6 -12.82 0 0 12.6 -6.97 0 0 -30.95 6.97 0 0 12.35 12.82 0 0 -12.35 6.99 0 0 30.95zm25.65 0l-18.57 0 0 -30.95 17.85 0 0 5.67 -10.87 0 0 6.89 10.12 0 0 5.65 -10.12 0 0 7.08 11.59 0 0 5.66zm30.92 0l-8 0 -4.81 -7.96c-0.37,-0.61 -0.71,-1.15 -1.04,-1.62 -0.33,-0.47 -0.67,-0.88 -1,-1.22 -0.34,-0.34 -0.7,-0.6 -1.07,-0.78 -0.36,-0.18 -0.76,-0.27 -1.19,-0.27l-1.88 0 0 11.85 -6.97 0 0 -30.95 11.05 0c7.51,0 11.27,2.81 11.27,8.41 0,1.09 -0.17,2.08 -0.5,3 -0.33,0.91 -0.8,1.73 -1.4,2.47 -0.61,0.73 -1.34,1.36 -2.19,1.89 -0.86,0.54 -1.81,0.95 -2.87,1.26l0 0.09c0.47,0.14 0.91,0.37 1.34,0.7 0.44,0.32 0.85,0.7 1.26,1.13 0.4,0.43 0.78,0.9 1.15,1.39 0.37,0.5 0.7,0.98 1.01,1.46l5.84 9.15zm-18.99 -25.72l0 8.61 3.02 0c1.5,0 2.7,-0.44 3.61,-1.3 0.92,-0.88 1.38,-1.97 1.38,-3.26 0,-2.71 -1.62,-4.05 -4.86,-4.05l-3.15 0zm57.16 25.72l-6.89 0 0 -18.52c0,-2 0.09,-4.21 0.26,-6.62l-0.17 0c-0.36,1.9 -0.69,3.26 -0.98,4.1l-7.25 21.04 -5.7 0 -7.38 -20.83c-0.2,-0.56 -0.52,-2 -0.97,-4.31l-0.19 0c0.18,3.05 0.28,5.72 0.28,8.03l0 17.11 -6.29 0 0 -30.95 10.21 0 6.33 18.35c0.5,1.46 0.87,2.93 1.1,4.42l0.13 0c0.38,-1.71 0.8,-3.2 1.23,-4.47l6.32 -18.3 9.96 0 0 30.95zm34.25 0l-7.6 0 -2.2 -6.89 -11.01 0 -2.18 6.89 -7.56 0 11.27 -30.95 8.27 0 11.01 30.95zm-11.4 -12.24l-3.32 -10.4c-0.25,-0.78 -0.42,-1.71 -0.53,-2.78l-0.17 0c-0.07,0.9 -0.25,1.8 -0.53,2.69l-3.37 10.49 7.92 0zm43.1 12.24l-7.03 0 -12.76 -19.45c-0.74,-1.13 -1.27,-1.99 -1.56,-2.56l-0.08 0c0.11,1.09 0.17,2.76 0.17,5l0 17.01 -6.58 0 0 -30.95 7.51 0 12.28 18.84c0.56,0.85 1.08,1.69 1.56,2.53l0.09 0c-0.12,-0.72 -0.18,-2.14 -0.18,-4.25l0 -17.12 6.58 0 0 30.95zm20.16 0.54c-4.43,0 -8.04,-1.44 -10.84,-4.33 -2.79,-2.88 -4.18,-6.64 -4.18,-11.28 0,-4.89 1.41,-8.84 4.25,-11.86 2.84,-3.02 6.59,-4.54 11.27,-4.54 4.41,0 7.99,1.45 10.71,4.34 2.73,2.89 4.09,6.71 4.09,11.44 0,4.86 -1.41,8.79 -4.24,11.76 -2.82,2.98 -6.51,4.47 -11.06,4.47zm0.3 -26.01c-2.44,0 -4.39,0.92 -5.82,2.76 -1.44,1.83 -2.16,4.26 -2.16,7.28 0,3.06 0.72,5.48 2.16,7.28 1.43,1.78 3.32,2.67 5.65,2.67 2.41,0 4.31,-0.87 5.72,-2.6 1.41,-1.74 2.12,-4.14 2.12,-7.22 0,-3.21 -0.69,-5.71 -2.05,-7.49 -1.37,-1.79 -3.24,-2.68 -5.62,-2.68zm18.72 24.29l0 -6.92c1.25,1.06 2.61,1.85 4.08,2.37 1.46,0.52 2.94,0.79 4.44,0.79 0.88,0 1.65,-0.08 2.3,-0.24 0.65,-0.16 1.2,-0.37 1.64,-0.66 0.44,-0.28 0.77,-0.61 0.98,-0.99 0.22,-0.38 0.33,-0.79 0.33,-1.24 0,-0.61 -0.17,-1.15 -0.52,-1.62 -0.35,-0.48 -0.82,-0.92 -1.41,-1.32 -0.6,-0.4 -1.31,-0.79 -2.13,-1.16 -0.82,-0.37 -1.71,-0.76 -2.66,-1.15 -2.41,-1 -4.22,-2.23 -5.4,-3.69 -1.19,-1.45 -1.78,-3.2 -1.78,-5.26 0,-1.61 0.32,-3 0.97,-4.16 0.64,-1.16 1.53,-2.11 2.64,-2.86 1.12,-0.74 2.41,-1.3 3.88,-1.65 1.46,-0.35 3.02,-0.53 4.66,-0.53 1.61,0 3.04,0.1 4.29,0.29 1.23,0.19 2.38,0.5 3.44,0.9l0 6.46c-0.53,-0.37 -1.09,-0.68 -1.7,-0.96 -0.61,-0.27 -1.24,-0.5 -1.89,-0.68 -0.64,-0.18 -1.29,-0.31 -1.93,-0.4 -0.64,-0.08 -1.25,-0.12 -1.82,-0.12 -0.8,0 -1.51,0.07 -2.16,0.22 -0.65,0.15 -1.19,0.37 -1.64,0.64 -0.44,0.27 -0.79,0.6 -1.04,0.98 -0.24,0.38 -0.36,0.81 -0.36,1.28 0,0.52 0.13,0.99 0.4,1.39 0.28,0.42 0.67,0.81 1.18,1.17 0.5,0.37 1.11,0.73 1.83,1.08 0.71,0.35 1.53,0.71 2.44,1.09 1.24,0.52 2.34,1.07 3.33,1.65 0.98,0.58 1.83,1.25 2.53,1.97 0.71,0.74 1.25,1.58 1.62,2.53 0.38,0.93 0.56,2.03 0.56,3.28 0,1.73 -0.32,3.18 -0.98,4.35 -0.65,1.18 -1.54,2.13 -2.66,2.85 -1.12,0.73 -2.43,1.25 -3.92,1.57 -1.49,0.31 -3.06,0.47 -4.72,0.47 -1.69,0 -3.31,-0.14 -4.84,-0.43 -1.53,-0.29 -2.86,-0.72 -3.98,-1.29z"/>
  <g>
   <polygon class="fil0" points="283.35,247.77 16.65,247.77 16.65,245.52 283.35,245.52 "/>
  </g>
  <g>
   <g>
    <path class="fil1" d="M183.37 76.26l-7.24 0 0 0 -0.03 -1.3 -0.1 -1.28 -0.16 -1.25 -0.22 -1.24 -0.28 -1.21 -0.34 -1.19 -0.39 -1.17 -0.45 -1.14 -0.5 -1.11 -0.56 -1.08 -0.6 -1.05 -0.66 -1.02 -0.7 -0.98 -0.74 -0.95 -0.79 -0.92 -0.83 -0.87 -0.88 -0.83 -0.91 -0.79 -0.95 -0.75 -0.98 -0.7 -1.02 -0.65 -1.05 -0.6 -1.08 -0.56 -1.11 -0.5 -1.14 -0.45 -1.17 -0.39 -1.19 -0.34 -1.21 -0.28 -1.24 -0.22 -1.25 -0.16 -1.28 -0.1 -1.3 -0.03 0 -7.24 1.67 0.04 1.64 0.12 1.61 0.21 1.6 0.28 1.57 0.36 1.53 0.44 1.51 0.51 1.46 0.58 1.44 0.65 1.4 0.71 1.35 0.78 1.31 0.84 1.27 0.91 1.22 0.95 1.18 1.02 1.12 1.07 1.07 1.12 1.02 1.18 0.95 1.22 0.9 1.26 0.85 1.32 0.78 1.35 0.71 1.4 0.65 1.43 0.58 1.47 0.51 1.51 0.43 1.53 0.37 1.57 0.28 1.6 0.21 1.61 0.12 1.64 0.04 1.67 0 0zm-32.35 32.34l0 -7.24 0 0 1.3 -0.03 1.28 -0.1 1.25 -0.16 1.24 -0.22 1.21 -0.28 1.19 -0.34 1.17 -0.39 1.14 -0.45 1.11 -0.5 1.08 -0.56 1.05 -0.6 1.02 -0.65 0.98 -0.7 0.95 -0.75 0.91 -0.79 0.88 -0.83 0.83 -0.87 0.79 -0.92 0.74 -0.95 0.7 -0.98 0.66 -1.02 0.6 -1.05 0.56 -1.08 0.5 -1.11 0.45 -1.14 0.39 -1.17 0.34 -1.19 0.28 -1.21 0.22 -1.24 0.16 -1.25 0.1 -1.28 0.03 -1.29 7.24 0 -0.04 1.66 -0.12 1.64 -0.21 1.62 -0.28 1.59 -0.37 1.57 -0.43 1.53 -0.51 1.51 -0.58 1.47 -0.65 1.43 -0.71 1.4 -0.78 1.35 -0.85 1.32 -0.9 1.26 -0.95 1.22 -1.02 1.18 -1.07 1.12 -1.12 1.07 -1.18 1.02 -1.22 0.95 -1.27 0.91 -1.31 0.84 -1.35 0.78 -1.4 0.71 -1.44 0.65 -1.46 0.58 -1.51 0.51 -1.53 0.44 -1.57 0.36 -1.6 0.28 -1.61 0.21 -1.64 0.12 -1.67 0.04 0 0zm-32.35 -32.34l7.25 0 0 0 0.03 1.29 0.1 1.28 0.16 1.25 0.22 1.24 0.28 1.21 0.34 1.19 0.39 1.17 0.45 1.14 0.5 1.11 0.55 1.08 0.61 1.05 0.65 1.02 0.7 0.98 0.75 0.95 0.79 0.92 0.83 0.87 0.87 0.83 0.91 0.79 0.95 0.75 0.99 0.7 1.02 0.65 1.05 0.6 1.08 0.56 1.11 0.5 1.14 0.45 1.17 0.39 1.19 0.34 1.21 0.28 1.23 0.22 1.26 0.16 1.28 0.1 1.29 0.03 0 7.24 -1.66 -0.04 -1.64 -0.12 -1.62 -0.21 -1.59 -0.28 -1.57 -0.36 -1.53 -0.44 -1.51 -0.51 -1.47 -0.58 -1.43 -0.65 -1.4 -0.71 -1.35 -0.78 -1.32 -0.84 -1.26 -0.91 -1.22 -0.95 -1.18 -1.02 -1.12 -1.07 -1.07 -1.12 -1.02 -1.18 -0.96 -1.22 -0.9 -1.26 -0.84 -1.32 -0.78 -1.35 -0.71 -1.4 -0.65 -1.43 -0.58 -1.47 -0.51 -1.51 -0.44 -1.53 -0.36 -1.57 -0.28 -1.59 -0.21 -1.62 -0.12 -1.64 -0.05 -1.66 0 0zm32.35 -32.35l0 7.24 0 0 -1.29 0.03 -1.28 0.1 -1.26 0.16 -1.23 0.22 -1.21 0.28 -1.19 0.34 -1.17 0.39 -1.14 0.45 -1.11 0.5 -1.08 0.56 -1.05 0.6 -1.02 0.65 -0.99 0.7 -0.95 0.75 -0.91 0.79 -0.87 0.83 -0.83 0.87 -0.79 0.92 -0.75 0.95 -0.7 0.98 -0.65 1.02 -0.61 1.05 -0.55 1.08 -0.5 1.11 -0.45 1.14 -0.39 1.17 -0.34 1.19 -0.28 1.21 -0.22 1.24 -0.16 1.25 -0.1 1.28 -0.03 1.3 -7.25 0 0.05 -1.67 0.12 -1.64 0.21 -1.61 0.28 -1.6 0.36 -1.57 0.44 -1.53 0.51 -1.51 0.58 -1.47 0.65 -1.43 0.71 -1.4 0.78 -1.35 0.84 -1.32 0.9 -1.26 0.96 -1.22 1.02 -1.18 1.07 -1.12 1.12 -1.07 1.18 -1.02 1.22 -0.95 1.26 -0.91 1.32 -0.84 1.35 -0.78 1.4 -0.71 1.43 -0.65 1.47 -0.58 1.51 -0.51 1.53 -0.44 1.57 -0.36 1.59 -0.28 1.62 -0.21 1.64 -0.12 1.66 -0.04 0 0z"/>
    <path id="1" class="fil2" d="M151.02 47.53c15.87,0 28.73,12.86 28.73,28.73 0,15.86 -12.86,28.72 -28.73,28.72 -15.86,0 -28.72,-12.86 -28.72,-28.72 0,-15.87 12.86,-28.73 28.72,-28.73z"/>
   </g>
   <g>
    <path class="fil2" d="M133.31 163.38l32.67 0 0 25.89c0,7.62 -6.24,13.86 -13.86,13.86l-4.95 0c-7.62,0 -13.86,-6.24 -13.86,-13.86l0 -25.89z"/>
    <path class="fil2 str0" d="M133.31 160.39l32.67 0 0 -34.15c0,-7.62 -6.24,-13.86 -13.86,-13.86l-4.95 0c-7.62,0 -13.86,6.24 -13.86,13.86l0 34.15z"/>
   </g>
   <g>
    <path class="fil1" d="M218.44 140.97l-20.15 0 0 -7.24 20.15 0 0 0 0 7.24zm7.97 -9.89l6.25 3.65 0 0.01 -0.33 0.53 -0.35 0.52 -0.36 0.48 -0.39 0.47 -0.4 0.44 -0.41 0.41 -0.43 0.39 -0.45 0.36 -0.46 0.34 -0.47 0.3 -0.47 0.28 -0.48 0.25 -0.48 0.23 -0.49 0.2 -0.49 0.17 -0.48 0.16 -0.49 0.13 -0.48 0.11 -0.48 0.1 -0.48 0.08 -0.47 0.07 -0.46 0.05 -0.47 0.05 -0.45 0.03 -0.45 0.03 -0.45 0.02 -0.44 0.01 -0.45 0.01 -0.43 0 -0.43 0.01 -0.43 0 -0.42 0 0 -7.24 0.41 0 0.41 -0.01 0.39 0 0.39 0 0.36 -0.01 0.37 -0.01 0.35 -0.02 0.33 -0.02 0.33 -0.02 0.31 -0.03 0.3 -0.04 0.28 -0.03 0.27 -0.05 0.26 -0.05 0.24 -0.06 0.23 -0.06 0.22 -0.07 0.2 -0.07 0.19 -0.08 0.18 -0.09 0.18 -0.09 0.17 -0.1 0.16 -0.1 0.15 -0.11 0.16 -0.13 0.16 -0.14 0.16 -0.16 0.16 -0.18 0.16 -0.19 0.16 -0.22 0.16 -0.24 0.17 -0.28 0 0.01zm0 -0.01c1.01,-1.72 3.23,-2.3 4.96,-1.29 1.72,1.01 2.3,3.23 1.29,4.96l-6.25 -3.67zm16.43 -13.72l-10.18 17.38 -6.25 -3.65 10.18 -17.39 0 -0.01 6.25 3.67zm-6.25 -3.66c1.01,-1.73 3.23,-2.31 4.95,-1.3 1.73,1.01 2.31,3.23 1.3,4.96l-6.25 -3.66zm4.59 -5.34l4.98 5.25 0 0 -0.29 0.28 -0.28 0.25 -0.26 0.23 -0.23 0.21 -0.22 0.19 -0.21 0.17 -0.17 0.14 -0.17 0.14 -0.16 0.12 -0.13 0.1 -0.12 0.08 -0.07 0.06 -0.05 0.04 -0.01 0 0.01 -0.01 0.04 -0.03 0.05 -0.05 0.05 -0.05 0.04 -0.05 0.04 -0.04 0 -0.01 -0.03 0.04 -0.03 0.05 -0.06 0.09 -0.07 0.12 -0.09 0.14 -0.1 0.17 -0.13 0.22 -0.14 0.24 -0.16 0.27 -0.18 0.3 -0.19 0.34 -6.25 -3.67 0.2 -0.33 0.17 -0.31 0.17 -0.28 0.15 -0.25 0.13 -0.22 0.13 -0.22 0.13 -0.21 0.11 -0.18 0.12 -0.19 0.12 -0.18 0.12 -0.16 0.14 -0.19 0.16 -0.2 0.17 -0.19 0.16 -0.17 0.18 -0.17 0.17 -0.15 0.15 -0.12 0.14 -0.11 0.11 -0.09 0.1 -0.07 0.08 -0.06 0.08 -0.06 0.09 -0.07 0.09 -0.07 0.12 -0.1 0.13 -0.11 0.14 -0.12 0.18 -0.16 0.19 -0.17 0.21 -0.19 0.25 -0.23 0 0zm13.52 -2.85l-8.54 8.1 -4.98 -5.25 8.53 -8.1 4.99 5.25 0 0zm-2.07 -15.17l0 -7.25 2.63 1.13 0.51 0.57 0.49 0.6 0.44 0.61 0.42 0.63 0.38 0.65 0.34 0.66 0.31 0.67 0.28 0.68 0.24 0.7 0.2 0.69 0.17 0.71 0.14 0.72 0.1 0.71 0.06 0.72 0.03 0.72 0 0.72 -0.03 0.73 -0.07 0.71 -0.11 0.72 -0.13 0.71 -0.18 0.7 -0.21 0.7 -0.24 0.69 -0.27 0.68 -0.31 0.66 -0.35 0.66 -0.37 0.64 -0.42 0.62 -0.44 0.61 -0.48 0.59 -0.51 0.57 -0.55 0.54 -4.99 -5.25 0.29 -0.28 0.26 -0.3 0.25 -0.3 0.23 -0.31 0.21 -0.33 0.2 -0.33 0.17 -0.33 0.17 -0.35 0.14 -0.35 0.12 -0.36 0.11 -0.36 0.09 -0.37 0.07 -0.37 0.06 -0.37 0.03 -0.38 0.02 -0.38 0 -0.37 -0.01 -0.38 -0.04 -0.38 -0.05 -0.37 -0.07 -0.37 -0.09 -0.37 -0.11 -0.37 -0.12 -0.35 -0.14 -0.36 -0.16 -0.34 -0.18 -0.35 -0.19 -0.32 -0.22 -0.33 -0.23 -0.31 -0.25 -0.31 -0.27 -0.3 2.63 1.13zm0 -7.25l0 0 0 7.25 0 0 -2.63 -1.13 2.63 -6.12zm-13.68 5.83l-4.98 -5.26 0 0 0.57 -0.51 0.59 -0.48 0.62 -0.45 0.62 -0.42 0.65 -0.38 0.66 -0.34 0.67 -0.31 0.69 -0.27 0.69 -0.24 0.7 -0.21 0.71 -0.17 0.71 -0.13 0.72 -0.1 0.71 -0.07 0.73 -0.03 0.72 0 0.72 0.03 0.71 0.07 0.72 0.11 0.71 0.14 0.71 0.17 0.69 0.21 0.69 0.24 0.68 0.27 0.67 0.31 0.66 0.35 0.63 0.38 0.63 0.41 0.61 0.44 0.59 0.49 0.56 0.51 0.55 0.54 -5.26 4.99 -0.28 -0.29 -0.3 -0.26 -0.3 -0.25 -0.31 -0.23 -0.32 -0.21 -0.33 -0.2 -0.34 -0.17 -0.34 -0.16 -0.36 -0.15 -0.35 -0.12 -0.37 -0.11 -0.37 -0.09 -0.36 -0.07 -0.38 -0.06 -0.38 -0.03 -0.37 -0.02 -0.38 0 -0.38 0.01 -0.37 0.04 -0.38 0.05 -0.37 0.07 -0.37 0.09 -0.36 0.11 -0.36 0.12 -0.35 0.14 -0.35 0.16 -0.34 0.18 -0.33 0.19 -0.33 0.22 -0.31 0.23 -0.31 0.25 -0.3 0.27 0 0zm-13.52 2.84l8.54 -8.1 4.98 5.26 -8.53 8.1 -5.02 -5.23 0.03 -0.03zm4.99 5.26c-1.45,1.37 -3.75,1.31 -5.12,-0.14 -1.38,-1.45 -1.32,-3.74 0.13,-5.12l4.99 5.26zm-10.36 -3.03l-4.54 -5.64 0 0 0.71 -0.51 0.75 -0.43 0.78 -0.34 0.8 -0.24 0.81 -0.14 0.78 -0.06 0.76 0.02 0.73 0.08 0.69 0.14 0.66 0.18 0.62 0.21 0.59 0.24 0.55 0.27 0.53 0.28 0.5 0.29 0.47 0.29 0.44 0.31 0.43 0.29 0.4 0.3 0.36 0.29 0.35 0.28 0.32 0.26 0.29 0.24 0.25 0.22 0.22 0.19 0.19 0.15 0.12 0.1 0.05 0.04 -0.08 -0.05 -0.38 -0.2 -1.21 -0.26 -2.6 1 5.05 5.19 -2.7 1.04 -1.38 -0.31 -0.6 -0.31 -0.35 -0.24 -0.29 -0.21 -0.24 -0.2 -0.24 -0.2 -0.24 -0.2 -0.24 -0.21 -0.26 -0.21 -0.26 -0.22 -0.26 -0.21 -0.27 -0.21 -0.27 -0.2 -0.28 -0.2 -0.28 -0.19 -0.27 -0.17 -0.27 -0.16 -0.25 -0.13 -0.24 -0.12 -0.22 -0.09 -0.2 -0.07 -0.18 -0.05 -0.14 -0.03 -0.11 -0.01 -0.07 0 -0.06 0 -0.02 0.01 -0.03 0 -0.03 0.02 -0.06 0.03 -0.08 0.06 0 0zm1.9 5.48l-5.64 4.55 0 0 -0.35 -0.46 -0.34 -0.46 -0.32 -0.47 -0.31 -0.48 -0.29 -0.48 -0.26 -0.48 -0.26 -0.49 -0.23 -0.49 -0.21 -0.49 -0.2 -0.5 -0.18 -0.51 -0.15 -0.5 -0.14 -0.5 -0.12 -0.51 -0.1 -0.51 -0.07 -0.51 -0.06 -0.51 -0.03 -0.52 -0.01 -0.51 0.02 -0.52 0.05 -0.52 0.07 -0.52 0.11 -0.52 0.13 -0.51 0.17 -0.51 0.21 -0.5 0.24 -0.5 0.29 -0.49 0.33 -0.46 0.36 -0.44 0.41 -0.42 0.44 -0.38 4.54 5.64 0 0 0.01 -0.01 0 -0.01 0 0.01 -0.01 0.01 -0.01 0.03 -0.02 0.05 -0.02 0.05 -0.02 0.09 -0.02 0.1 -0.02 0.11 -0.01 0.13 0 0.15 0 0.18 0.01 0.18 0.02 0.2 0.03 0.21 0.05 0.23 0.05 0.23 0.07 0.24 0.08 0.26 0.09 0.26 0.1 0.26 0.12 0.28 0.13 0.27 0.14 0.28 0.16 0.28 0.17 0.29 0.18 0.27 0.19 0.29 0.21 0.28 0.22 0.28 0 0zm5.38 8.82l-6.25 -3.66 0 0 -0.27 0.6 -0.15 0.69 0.02 0.69 0.13 0.58 0.18 0.41 0.15 0.26 0.12 0.16 0.07 0.08 0.02 0.02 -0.01 -0.01 -0.06 -0.05 -0.09 -0.07 -0.12 -0.08 -0.14 -0.1 -0.17 -0.12 -0.19 -0.13 -0.2 -0.14 -0.22 -0.14 -0.24 -0.16 -0.23 -0.16 -0.26 -0.18 -0.26 -0.19 -0.28 -0.2 -0.28 -0.2 -0.28 -0.22 -0.28 -0.23 -0.29 -0.25 -0.29 -0.26 -0.29 -0.27 -0.29 -0.3 -0.29 -0.31 -0.28 -0.33 5.64 -4.55 0.08 0.1 0.1 0.1 0.1 0.11 0.13 0.12 0.15 0.13 0.14 0.13 0.17 0.13 0.18 0.14 0.18 0.13 0.19 0.14 0.19 0.14 0.21 0.14 0.22 0.15 0.21 0.14 0.22 0.15 0.22 0.15 0.22 0.15 0.22 0.15 0.23 0.17 0.24 0.17 0.23 0.18 0.25 0.2 0.26 0.23 0.26 0.26 0.28 0.31 0.29 0.38 0.29 0.49 0.27 0.63 0.18 0.79 0.02 0.9 -0.19 0.9 -0.36 0.8 0 0.01zm-13.83 9.28l7.58 -12.94 6.25 3.66 -7.58 12.94 -3.12 1.79 -3.13 -5.45zm6.25 3.66c-1.01,1.73 -3.22,2.31 -4.95,1.3 -1.73,-1.01 -2.31,-3.23 -1.3,-4.96l6.25 3.66zm-21.47 -5.45l18.35 0 0 7.24 -18.35 0 0 0 0 -7.24zm-5.36 12.6l-7.24 0 0 0 0.02 -0.64 0.05 -0.64 0.08 -0.64 0.11 -0.61 0.14 -0.62 0.17 -0.59 0.2 -0.59 0.23 -0.57 0.25 -0.56 0.28 -0.55 0.3 -0.52 0.33 -0.51 0.35 -0.5 0.38 -0.47 0.39 -0.46 0.42 -0.43 0.43 -0.42 0.46 -0.4 0.48 -0.37 0.49 -0.35 0.51 -0.33 0.53 -0.3 0.54 -0.28 0.56 -0.25 0.57 -0.23 0.59 -0.2 0.6 -0.17 0.61 -0.14 0.61 -0.11 0.64 -0.09 0.64 -0.04 0.64 -0.02 0 7.24 -0.28 0.01 -0.27 0.02 -0.26 0.03 -0.27 0.05 -0.25 0.06 -0.25 0.07 -0.25 0.09 -0.24 0.09 -0.24 0.11 -0.23 0.12 -0.22 0.13 -0.22 0.14 -0.21 0.15 -0.21 0.16 -0.19 0.17 -0.19 0.18 -0.18 0.19 -0.17 0.19 -0.16 0.21 -0.15 0.21 -0.14 0.21 -0.13 0.23 -0.12 0.23 -0.11 0.24 -0.09 0.24 -0.09 0.25 -0.07 0.25 -0.06 0.25 -0.04 0.27 -0.04 0.26 -0.02 0.27 -0.01 0.28 0 0zm5.36 5.36l0 7.24 0 0 -0.64 -0.02 -0.64 -0.05 -0.64 -0.08 -0.61 -0.11 -0.62 -0.14 -0.6 -0.17 -0.58 -0.2 -0.57 -0.23 -0.56 -0.25 -0.55 -0.28 -0.52 -0.3 -0.51 -0.33 -0.5 -0.36 -0.47 -0.37 -0.45 -0.39 -0.44 -0.42 -0.42 -0.44 -0.39 -0.45 -0.38 -0.48 -0.35 -0.49 -0.33 -0.51 -0.3 -0.53 -0.28 -0.54 -0.25 -0.56 -0.23 -0.57 -0.2 -0.59 -0.17 -0.6 -0.14 -0.61 -0.11 -0.62 -0.08 -0.63 -0.05 -0.64 -0.02 -0.64 7.24 0 0.01 0.28 0.02 0.27 0.04 0.26 0.04 0.27 0.06 0.25 0.07 0.25 0.09 0.25 0.09 0.24 0.11 0.24 0.12 0.23 0.13 0.22 0.14 0.22 0.15 0.21 0.16 0.2 0.17 0.2 0.18 0.19 0.19 0.18 0.19 0.17 0.21 0.16 0.21 0.15 0.21 0.14 0.23 0.13 0.23 0.12 0.24 0.1 0.24 0.1 0.25 0.09 0.25 0.07 0.25 0.06 0.27 0.04 0.26 0.04 0.27 0.02 0.28 0.01 0 0z"/>
    <path id="1" class="fil2" d="M198.29 137.35l20.15 0c4.48,0 8.49,0 11.1,-4.45l10.17 -17.38c2.22,-3.78 0.95,-1.7 3.96,-4.55l8.54 -8.09c4.56,-4.33 4.75,-11.61 0.42,-16.17l0 0c-4.33,-4.57 -11.61,-4.76 -16.17,-0.43l-8.53 8.1c-0.43,0.41 -5.95,-6.6 -10.14,-3.22 -2.41,1.93 -1.8,6.67 1.35,10.58 1.87,2.31 5.71,3.63 5.07,4.71l-7.57 12.94 -18.35 0c-4.94,0 -8.98,4.04 -8.98,8.98 0,4.94 4.04,8.98 8.98,8.98z"/>
   </g>
   <g>
    <path class="fil1" d="M118.42 119.25l0 81.14 -7.25 0 0 -81.14 2.32 -3.38 4.93 3.38zm-7.25 0c0,-2 1.62,-3.62 3.62,-3.62 2,0 3.63,1.62 3.63,3.62l-7.25 0zm22.76 -3.49l-17.83 6.87 -2.61 -6.76 17.83 -6.87 4.93 3.38 -2.32 3.38zm-2.61 -6.76c1.87,-0.72 3.97,0.21 4.69,2.08 0.72,1.87 -0.21,3.96 -2.08,4.68l-2.61 -6.76zm-2.32 38.05l0 -34.67 7.25 0 0 34.67 -3.62 3.62 -3.63 -3.62zm7.25 0c0,2 -1.62,3.62 -3.62,3.62 -2,0 -3.63,-1.62 -3.63,-3.62l7.25 0zm31.06 3.62l-34.68 0 0 -7.25 34.68 0 3.63 3.63 -3.63 3.62zm0 -7.25c2.01,0 3.63,1.63 3.63,3.63 0,2 -1.62,3.62 -3.63,3.62l0 -7.25zm3.63 -30.4l0 34.03 -7.25 0 0 -34.03 4.82 -3.42 2.43 3.42zm-7.25 0c0,-2 1.62,-3.62 3.62,-3.62 2.01,0 3.63,1.62 3.63,3.62l-7.25 0zm20.26 9.65l-17.83 -6.23 2.39 -6.84 17.83 6.23 2.43 3.42 -4.82 3.42zm2.39 -6.84c1.89,0.66 2.89,2.73 2.23,4.62 -0.66,1.88 -2.73,2.88 -4.62,2.22l2.39 -6.84zm-4.82 84.56l0 -81.14 7.25 0 0 81.14 -3.62 3.62 -3.63 -3.62zm7.25 0c0,2 -1.62,3.62 -3.62,3.62 -2,0 -3.63,-1.62 -3.63,-3.62l7.25 0zm-21.46 -3.62l17.84 0 0 7.24 -17.84 0 -3.62 -3.62 3.62 -3.62zm0 7.24c-2,0 -3.62,-1.62 -3.62,-3.62 0,-2 1.62,-3.62 3.62,-3.62l0 7.24zm3.63 -42.09l0 38.47 -7.25 0 0 -38.47 3.62 -3.62 3.63 3.62zm-7.25 0c0,-2 1.62,-3.62 3.62,-3.62 2.01,0 3.63,1.62 3.63,3.62l-7.25 0zm-31.06 -3.62l34.68 0 0 7.24 -34.68 0 -3.63 -3.62 3.63 -3.62zm0 7.24c-2,0 -3.63,-1.62 -3.63,-3.62 0,-2 1.63,-3.62 3.63,-3.62l0 7.24zm-3.63 34.85l0 -38.47 7.25 0 0 38.47 -3.62 3.62 -3.63 -3.62zm7.25 0c0,2 -1.62,3.62 -3.62,3.62 -2,0 -3.63,-1.62 -3.63,-3.62l7.25 0zm-21.46 -3.62l17.84 0 0 7.24 -17.84 0 -3.62 -3.62 3.62 -3.62zm0 7.24c-2,0 -3.62,-1.62 -3.62,-3.62 0,-2 1.62,-3.62 3.62,-3.62l0 7.24z"/>
    <polygon id="1" class="fil3" points="114.79,200.39 114.79,119.25 132.63,112.38 132.63,147.05 167.31,147.05 167.31,113.02 185.15,119.25 185.15,200.39 167.31,200.39 167.31,161.92 132.63,161.92 132.63,200.39 "/>
   </g>
   <g>
    <path class="fil1" d="M106.77 162.68l12.56 0.1 -0.05 7.24 -12.57 -0.1 0 0 0.06 -7.24zm-25.9 -8.49l5.01 5.23 0.05 -0.05 -0.51 0.54 -0.36 0.45 -0.22 0.34 -0.1 0.19 -0.02 0.03 0.02 -0.12 -0.01 -0.25 -0.08 -0.26 -0.09 -0.19 -0.05 -0.07 0.05 0.04 0.17 0.13 0.31 0.17 0.45 0.2 0.56 0.21 0.67 0.22 0.78 0.2 0.86 0.2 0.95 0.18 1.03 0.17 1.1 0.15 1.16 0.14 1.22 0.12 1.28 0.1 1.32 0.1 1.38 0.08 1.41 0.06 1.46 0.06 1.48 0.04 1.52 0.04 1.53 0.02 1.57 0.02 -0.06 7.24 -1.6 -0.01 -1.59 -0.03 -1.56 -0.04 -1.54 -0.04 -1.52 -0.06 -1.49 -0.07 -1.45 -0.08 -1.42 -0.1 -1.38 -0.12 -1.34 -0.13 -1.3 -0.16 -1.26 -0.17 -1.21 -0.2 -1.16 -0.22 -1.11 -0.25 -1.07 -0.29 -1.03 -0.32 -0.97 -0.37 -0.94 -0.43 -0.9 -0.51 -0.86 -0.61 -0.81 -0.76 -0.72 -0.92 -0.57 -1.09 -0.34 -1.24 -0.06 -1.27 0.18 -1.23 0.37 -1.13 0.52 -1.03 0.64 -0.97 0.75 -0.93 0.85 -0.9 0.05 -0.05zm-0.05 0.05c1.42,-1.41 3.71,-1.41 5.12,0.01 1.41,1.42 1.41,3.71 -0.01,5.12l-5.11 -5.13zm30.16 -18.84l-25.1 24.02 -5.01 -5.23 25.11 -24.02 5.21 5.01 -0.21 0.22zm-5 -5.23c1.44,-1.38 3.73,-1.33 5.12,0.11 1.38,1.45 1.33,3.74 -0.12,5.12l-5 -5.23zm0.02 -4.76l4.76 -5.45 0.52 0.56 0.3 0.41 0.27 0.42 0.25 0.42 0.24 0.44 0.22 0.45 0.2 0.44 0.18 0.45 0.16 0.47 0.15 0.46 0.13 0.47 0.1 0.47 0.1 0.47 0.07 0.48 0.05 0.47 0.04 0.49 0.02 0.48 0 0.48 -0.02 0.49 -0.04 0.48 -0.06 0.48 -0.08 0.48 -0.1 0.48 -0.12 0.48 -0.14 0.47 -0.17 0.47 -0.19 0.47 -0.21 0.46 -0.24 0.44 -0.26 0.44 -0.29 0.43 -0.31 0.42 -0.34 0.4 -5.43 -4.79 0.09 -0.1 0.07 -0.1 0.08 -0.12 0.07 -0.12 0.07 -0.13 0.06 -0.13 0.06 -0.15 0.05 -0.15 0.05 -0.15 0.05 -0.17 0.03 -0.18 0.03 -0.18 0.03 -0.18 0.01 -0.19 0.01 -0.2 0 -0.19 -0.01 -0.21 -0.01 -0.2 -0.03 -0.21 -0.03 -0.2 -0.04 -0.21 -0.05 -0.2 -0.05 -0.21 -0.07 -0.2 -0.07 -0.2 -0.08 -0.19 -0.08 -0.2 -0.09 -0.18 -0.1 -0.18 -0.1 -0.17 -0.11 -0.17 -0.12 -0.16 0.52 0.55zm-0.52 -0.55c-1.2,-1.61 -0.87,-3.88 0.73,-5.07 1.61,-1.2 3.88,-0.87 5.07,0.73l-5.8 4.34zm-3.97 -0.35l-5.02 -5.22 -0.14 0.14 0.37 -0.37 0.39 -0.35 0.41 -0.32 0.43 -0.28 0.44 -0.27 0.46 -0.23 0.46 -0.2 0.46 -0.17 0.47 -0.14 0.49 -0.12 0.48 -0.09 0.48 -0.07 0.48 -0.04 0.49 -0.02 0.48 0.01 0.48 0.03 0.48 0.05 0.48 0.07 0.48 0.1 0.46 0.11 0.47 0.13 0.46 0.16 0.46 0.17 0.46 0.19 0.44 0.21 0.45 0.23 0.43 0.24 0.43 0.27 0.43 0.28 0.41 0.3 0.4 0.32 0.4 0.33 -4.76 5.45 -0.19 -0.16 -0.2 -0.15 -0.2 -0.15 -0.19 -0.13 -0.21 -0.12 -0.19 -0.11 -0.2 -0.1 -0.19 -0.09 -0.19 -0.08 -0.19 -0.07 -0.19 -0.06 -0.18 -0.05 -0.18 -0.05 -0.17 -0.03 -0.16 -0.03 -0.15 -0.01 -0.15 -0.01 -0.14 0 -0.13 0 -0.12 0.01 -0.12 0.02 -0.1 0.01 -0.09 0.03 -0.09 0.02 -0.08 0.03 -0.06 0.03 -0.06 0.03 -0.05 0.03 -0.05 0.04 -0.05 0.03 -0.04 0.04 -0.04 0.04 -0.14 0.14zm0.14 -0.14c-1.37,1.46 -3.66,1.54 -5.12,0.18 -1.46,-1.37 -1.54,-3.66 -0.18,-5.12l5.3 4.94zm-40.61 28.96l35.45 -34.04 5.02 5.22 -35.45 34.04 -5.65 -4.42 0.63 -0.8zm5.02 5.22c-1.45,1.39 -3.74,1.34 -5.13,-0.1 -1.38,-1.44 -1.33,-3.74 0.11,-5.12l5.02 5.22zm6.26 12.69l-2.06 6.94 0 0 -0.48 -0.14 -0.53 -0.17 -0.57 -0.18 -0.6 -0.21 -0.64 -0.23 -0.66 -0.26 -0.67 -0.28 -0.7 -0.32 -0.71 -0.36 -0.7 -0.38 -0.71 -0.44 -0.72 -0.48 -0.7 -0.53 -0.68 -0.58 -0.67 -0.64 -0.63 -0.7 -0.59 -0.77 -0.54 -0.83 -0.48 -0.9 -0.41 -0.97 -0.33 -1.02 -0.24 -1.07 -0.14 -1.12 -0.04 -1.15 0.06 -1.19 0.16 -1.21 0.25 -1.24 0.36 -1.27 0.46 -1.31 0.56 -1.33 0.67 -1.37 0.77 -1.4 6.27 3.63 -0.61 1.11 -0.5 1.03 -0.41 0.96 -0.31 0.88 -0.22 0.8 -0.16 0.73 -0.08 0.65 -0.03 0.58 0.02 0.52 0.06 0.47 0.09 0.42 0.13 0.38 0.15 0.36 0.18 0.34 0.22 0.33 0.24 0.32 0.29 0.31 0.31 0.31 0.35 0.29 0.38 0.29 0.41 0.27 0.43 0.26 0.46 0.26 0.47 0.23 0.47 0.22 0.49 0.21 0.49 0.19 0.49 0.17 0.48 0.17 0.47 0.15 0.45 0.14 0.43 0.13 0 0zm0 0c1.91,0.56 3.01,2.58 2.44,4.5 -0.56,1.91 -2.58,3.01 -4.5,2.44l2.06 -6.94zm35.52 9.74l-7.24 0.11 3.28 3.55 -1.44 -0.14 -1.38 -0.13 -1.34 -0.14 -1.28 -0.14 -1.24 -0.14 -1.19 -0.14 -1.15 -0.14 -1.12 -0.15 -1.08 -0.15 -1.05 -0.15 -1.03 -0.15 -1 -0.16 -0.98 -0.16 -0.96 -0.17 -0.94 -0.18 -0.93 -0.18 -0.92 -0.19 -0.92 -0.19 -0.91 -0.2 -0.91 -0.21 -0.9 -0.22 -0.92 -0.22 -0.92 -0.24 -0.93 -0.24 -0.94 -0.25 -0.96 -0.27 -0.98 -0.27 -1 -0.28 -1.03 -0.3 -1.06 -0.31 -1.08 -0.31 -1.13 -0.34 2.06 -6.94 1.11 0.33 1.08 0.31 1.03 0.3 1.01 0.29 0.97 0.28 0.95 0.26 0.92 0.26 0.91 0.24 0.88 0.23 0.87 0.22 0.87 0.21 0.85 0.21 0.85 0.19 0.85 0.19 0.85 0.18 0.86 0.18 0.87 0.17 0.88 0.16 0.9 0.16 0.92 0.15 0.94 0.15 0.97 0.15 1 0.14 1.03 0.14 1.07 0.14 1.12 0.14 1.15 0.13 1.2 0.14 1.25 0.13 1.3 0.14 1.36 0.13 1.42 0.14 3.28 3.55zm-3.28 -3.55c1.99,0.19 3.46,1.95 3.27,3.94 -0.19,2 -1.96,3.46 -3.95,3.27l0.68 -7.21zm3.21 18.91l-6.44 3.32 -0.39 -1.34 -0.05 -0.64 -0.05 -0.62 -0.04 -0.62 -0.04 -0.61 -0.04 -0.6 -0.03 -0.59 -0.02 -0.58 -0.02 -0.58 -0.02 -0.57 -0.02 -0.56 -0.01 -0.55 -0.01 -0.55 0 -0.55 -0.01 -0.53 0 -0.53 0 -0.53 0 -0.52 0 -0.52 0 -0.52 0.01 -0.5 0 -0.51 0.01 -0.5 0 -0.5 0 -0.5 0.01 -0.49 0 -0.5 0 -0.5 0 -0.49 0 -0.49 0 -0.5 0 -0.49 -0.01 -0.49 7.24 -0.11 0.01 0.53 0 0.52 0 0.52 0.01 0.51 -0.01 0.52 0 0.5 0 0.51 0 0.51 -0.01 0.5 0 0.5 -0.01 0.5 0 0.5 0 0.5 -0.01 0.5 0 0.5 0 0.51 0 0.5 0 0.51 0.01 0.51 0 0.51 0.01 0.51 0.01 0.52 0.02 0.53 0.02 0.53 0.02 0.53 0.02 0.54 0.03 0.55 0.03 0.55 0.03 0.56 0.04 0.56 0.05 0.58 0.05 0.58 -0.39 -1.34zm0.39 1.34c0.17,2 -1.3,3.75 -3.29,3.93 -2,0.17 -3.75,-1.3 -3.93,-3.29l7.22 -0.64zm3.52 0.32l7.24 0 -0.4 1.66 -0.38 0.64 -0.43 0.58 -0.47 0.51 -0.51 0.45 -0.53 0.4 -0.54 0.35 -0.55 0.29 -0.56 0.25 -0.57 0.22 -0.57 0.18 -0.57 0.15 -0.58 0.12 -0.58 0.1 -0.59 0.06 -0.58 0.04 -0.59 0.01 -0.58 -0.01 -0.59 -0.04 -0.58 -0.06 -0.58 -0.1 -0.58 -0.12 -0.57 -0.15 -0.58 -0.18 -0.56 -0.21 -0.56 -0.26 -0.56 -0.29 -0.54 -0.35 -0.52 -0.39 -0.51 -0.46 -0.47 -0.51 -0.43 -0.58 -0.38 -0.64 6.44 -3.32 -0.04 -0.06 -0.03 -0.04 0 -0.01 0.01 0.02 0.05 0.03 0.07 0.05 0.11 0.06 0.14 0.06 0.17 0.06 0.19 0.06 0.21 0.06 0.24 0.05 0.25 0.04 0.25 0.03 0.27 0.01 0.26 0.01 0.27 -0.01 0.27 -0.01 0.25 -0.03 0.25 -0.04 0.23 -0.05 0.22 -0.06 0.19 -0.06 0.16 -0.06 0.14 -0.06 0.11 -0.06 0.08 -0.05 0.04 -0.03 0.02 -0.01 -0.01 0 -0.03 0.04 -0.03 0.07 -0.4 1.65zm0.4 -1.65c0.91,-1.78 3.09,-2.48 4.87,-1.57 1.78,0.91 2.48,3.1 1.57,4.88l-6.44 -3.31zm3.21 -22.85l0.01 7.24 3.62 -3.54 -0.02 0.56 -0.01 0.58 0 0.58 -0.01 0.59 -0.01 0.61 -0.01 0.62 0 0.62 0 0.63 0 0.64 -0.01 0.64 0 0.65 0 0.66 0.01 0.66 0 0.66 0 0.68 0 0.67 0.01 0.67 0 0.68 0 0.68 0.01 0.68 0 0.68 0.01 0.68 0 0.68 0.01 0.68 0 0.68 0 0.67 0.01 0.67 0 0.67 0 0.67 0.01 0.66 0 0.65 0 0.65 -7.24 0 -0.01 -0.64 0 -0.65 0 -0.65 0 -0.65 -0.01 -0.67 0 -0.67 0 -0.67 -0.01 -0.67 0 -0.68 -0.01 -0.68 0 -0.68 0 -0.68 -0.01 -0.69 0 -0.68 -0.01 -0.68 0 -0.68 0 -0.68 0 -0.67 -0.01 -0.67 0 -0.67 0 -0.67 0 -0.66 0 -0.65 0.01 -0.65 0 -0.64 0 -0.64 0.01 -0.63 0 -0.62 0.01 -0.61 0.01 -0.61 0.01 -0.59 0.02 -0.59 3.61 -3.53zm-3.61 3.53c0.04,-2 1.7,-3.58 3.7,-3.53 2,0.04 3.58,1.7 3.54,3.7l-7.24 -0.17zm9.33 -3.78l0.18 7.24 0.19 -0.01 -0.35 0.03 -0.32 0.02 -0.3 0.03 -0.28 0.02 -0.25 0.02 -0.24 0.01 -0.21 0.02 -0.2 0.02 -0.19 0.01 -0.18 0.01 -0.16 0.01 -0.15 0.01 -0.17 0.01 -0.15 0.01 -0.11 0.01 -0.14 0 -0.15 0.01 -0.13 0 -0.15 0.01 -0.13 0 -0.12 0 -0.14 0 -0.14 0 -0.14 0 -0.15 0 -0.17 0 -0.17 0 -0.18 0 -0.2 0 -0.21 0 -0.24 0 -0.26 0 -0.01 -7.24 0.27 0 0.24 0 0.23 0 0.2 0 0.19 0 0.17 0 0.14 0 0.15 0 0.14 0 0.11 0 0.1 0 0.11 0 0.09 -0.01 0.08 0 0.09 0 0.07 0 0.08 -0.01 0.13 0 0.1 -0.01 0.1 0 0.13 -0.01 0.15 -0.01 0.16 -0.01 0.16 -0.02 0.19 -0.01 0.21 -0.02 0.23 -0.01 0.26 -0.02 0.27 -0.03 0.29 -0.02 0.33 -0.03 0.35 -0.02 0.2 -0.01zm-0.2 0.01c2,-0.16 3.74,1.33 3.9,3.32 0.15,2 -1.34,3.74 -3.33,3.9l-0.57 -7.22zm-1.53 -3.24l0.05 -7.24 -0.1 0 1.07 0.02 1.04 0.1 1 0.19 0.96 0.27 0.91 0.36 0.85 0.44 0.79 0.52 0.71 0.6 0.64 0.65 0.55 0.71 0.47 0.74 0.38 0.78 0.3 0.8 0.21 0.8 0.14 0.81 0.07 0.81 -0.01 0.8 -0.07 0.8 -0.15 0.79 -0.2 0.77 -0.28 0.75 -0.34 0.73 -0.41 0.7 -0.48 0.67 -0.55 0.63 -0.62 0.58 -0.7 0.53 -0.77 0.45 -0.82 0.37 -0.87 0.28 -0.92 0.18 -0.94 0.08 -0.18 -7.24 0.13 -0.01 0.11 -0.02 0.08 -0.03 0.07 -0.04 0.07 -0.04 0.07 -0.05 0.08 -0.07 0.08 -0.1 0.08 -0.1 0.07 -0.13 0.07 -0.15 0.06 -0.16 0.05 -0.18 0.03 -0.17 0.02 -0.18 0 -0.18 -0.01 -0.17 -0.03 -0.16 -0.04 -0.15 -0.05 -0.14 -0.06 -0.11 -0.07 -0.11 -0.08 -0.11 -0.09 -0.09 -0.11 -0.09 -0.15 -0.1 -0.18 -0.1 -0.23 -0.09 -0.29 -0.08 -0.36 -0.07 -0.44 -0.04 -0.51 -0.01 -0.1 0zm0.1 0c-2,0.04 -3.65,-1.55 -3.69,-3.54 -0.05,-2 1.54,-3.66 3.54,-3.7l0.15 7.24z"/>
    <path id="1" class="fil2" d="M119.31 166.4l-12.57 -0.1c-16.95,-0.13 -31.33,-1.57 -23.36,-9.5l25.1 -24.01c2.31,-2.63 2.14,-7.1 -0.1,-10.1 -3.13,-2.74 -7.24,-3.08 -9.38,-0.79l-35.45 34.04c-7.96,13.74 3.04,17.38 7.74,18.77 12.14,3.59 17.37,4.86 32.93,6.32 0.08,5.46 -0.25,10.42 0.33,16.97 1.64,3.19 9.11,3.19 10.75,0 -0.01,-6.84 -0.14,-14.83 0,-20.88 2.9,-0.01 1.9,0.05 5.8,-0.25 5.91,-0.15 6.95,-10.65 -1.79,-10.47z"/>
   </g>
   <g>
    <g>
     <path class="fil1" d="M121.92 62.26l28.72 0.01 0 7.24 -28.72 0 -3.63 -3.62 3.63 -3.63zm0 7.25c-2,0 -3.63,-1.62 -3.63,-3.62 0,-2 1.63,-3.63 3.63,-3.63l0 7.25zm28.72 -35.97l0 7.24 0 0 -1.29 0.03 -1.28 0.1 -1.26 0.16 -1.23 0.22 -1.22 0.28 -1.19 0.34 -1.16 0.39 -1.14 0.45 -1.11 0.5 -1.08 0.56 -1.05 0.6 -1.02 0.65 -0.99 0.71 -0.95 0.74 -0.91 0.79 -0.87 0.83 -0.83 0.88 -0.79 0.91 -0.75 0.95 -0.7 0.98 -0.65 1.02 -0.61 1.05 -0.55 1.08 -0.5 1.11 -0.45 1.14 -0.4 1.17 -0.33 1.19 -0.28 1.21 -0.22 1.24 -0.16 1.25 -0.1 1.28 -0.03 1.3 -7.25 0 0.05 -1.67 0.12 -1.64 0.21 -1.62 0.28 -1.59 0.36 -1.56 0.44 -1.54 0.51 -1.51 0.58 -1.47 0.65 -1.43 0.71 -1.4 0.78 -1.35 0.84 -1.31 0.9 -1.27 0.96 -1.22 1.02 -1.17 1.07 -1.13 1.12 -1.07 1.18 -1.01 1.22 -0.96 1.26 -0.91 1.32 -0.84 1.35 -0.78 1.39 -0.71 1.44 -0.65 1.47 -0.58 1.5 -0.51 1.54 -0.43 1.57 -0.37 1.59 -0.28 1.62 -0.21 1.64 -0.12 1.66 -0.04 0 0zm28.73 35.97l0 -7.24 -3.62 3.62 -0.03 -1.3 -0.1 -1.28 -0.16 -1.25 -0.22 -1.24 -0.28 -1.21 -0.34 -1.19 -0.39 -1.17 -0.45 -1.13 -0.51 -1.11 -0.55 -1.09 -0.6 -1.05 -0.66 -1.02 -0.7 -0.98 -0.74 -0.95 -0.79 -0.91 -0.83 -0.88 -0.88 -0.83 -0.91 -0.79 -0.95 -0.74 -0.98 -0.7 -1.02 -0.66 -1.05 -0.6 -1.09 -0.56 -1.11 -0.5 -1.13 -0.45 -1.17 -0.39 -1.19 -0.34 -1.21 -0.28 -1.24 -0.22 -1.26 -0.16 -1.27 -0.1 -1.3 -0.03 0 -7.24 1.66 0.04 1.64 0.12 1.62 0.21 1.6 0.28 1.56 0.37 1.54 0.43 1.5 0.51 1.48 0.58 1.43 0.65 1.39 0.71 1.36 0.78 1.31 0.84 1.27 0.9 1.22 0.97 1.17 1.01 1.13 1.07 1.07 1.13 1.01 1.17 0.96 1.22 0.91 1.27 0.84 1.31 0.78 1.35 0.71 1.4 0.65 1.43 0.58 1.48 0.51 1.5 0.43 1.53 0.37 1.57 0.28 1.6 0.21 1.61 0.12 1.64 0.04 1.67 -3.62 3.62zm3.62 -3.62c0,2 -1.62,3.62 -3.62,3.62 -2,0 -3.62,-1.62 -3.62,-3.62l7.24 0zm-32.35 -3.62l28.73 0 0 7.24 -28.73 0 0 0 0 -7.24zm0 7.24c-2,0 -3.62,-1.62 -3.62,-3.62 0,-2 1.62,-3.62 3.62,-3.62l0 7.24z"/>
     <path id="1" class="fil4" d="M150.64 65.89l-28.72 0c0,-15.87 12.86,-28.73 28.72,-28.73 15.87,0 28.73,12.86 28.73,28.73l-28.73 0z"/>
    </g>
    <g>
     <path class="fil1" d="M156.68 59.27l-12.29 0 0 -7.24 12.29 0 0 0 0 7.24zm13.2 5.97l-7.24 0 0 0 -0.01 -0.31 -0.02 -0.3 -0.04 -0.3 -0.05 -0.29 -0.07 -0.29 -0.08 -0.28 -0.09 -0.27 -0.11 -0.27 -0.12 -0.26 -0.13 -0.26 -0.15 -0.25 -0.15 -0.25 -0.17 -0.23 -0.18 -0.23 -0.18 -0.21 -0.2 -0.21 -0.21 -0.2 -0.22 -0.19 -0.23 -0.18 -0.23 -0.17 -0.24 -0.15 -0.26 -0.15 -0.25 -0.13 -0.27 -0.12 -0.26 -0.1 -0.28 -0.1 -0.28 -0.08 -0.29 -0.06 -0.29 -0.06 -0.29 -0.04 -0.3 -0.02 -0.31 -0.01 0 -7.24 0.67 0.02 0.67 0.05 0.67 0.08 0.65 0.12 0.63 0.15 0.63 0.18 0.61 0.21 0.61 0.24 0.58 0.26 0.57 0.29 0.55 0.32 0.54 0.35 0.52 0.37 0.49 0.39 0.48 0.41 0.46 0.44 0.43 0.45 0.42 0.48 0.39 0.5 0.37 0.52 0.34 0.54 0.32 0.55 0.29 0.56 0.27 0.59 0.24 0.6 0.21 0.62 0.17 0.63 0.15 0.63 0.12 0.65 0.08 0.67 0.05 0.66 0.02 0.68 0 0zm-3.62 0l0 0 0 0 0 0 3.62 0 -3.62 0zm-9.58 13.2l0 -7.24 0 0 0.31 -0.01 0.3 -0.02 0.29 -0.04 0.29 -0.05 0.29 -0.07 0.28 -0.08 0.28 -0.09 0.27 -0.11 0.26 -0.12 0.25 -0.13 0.25 -0.14 0.24 -0.16 0.24 -0.17 0.23 -0.17 0.22 -0.19 0.21 -0.2 0.2 -0.21 0.18 -0.22 0.18 -0.23 0.17 -0.23 0.16 -0.24 0.14 -0.26 0.13 -0.25 0.12 -0.27 0.11 -0.26 0.09 -0.28 0.08 -0.28 0.07 -0.29 0.05 -0.29 0.04 -0.29 0.02 -0.3 0.01 -0.31 7.24 0 -0.02 0.67 -0.05 0.67 -0.08 0.66 -0.12 0.65 -0.15 0.64 -0.17 0.63 -0.21 0.61 -0.24 0.61 -0.27 0.58 -0.29 0.57 -0.32 0.55 -0.34 0.54 -0.37 0.51 -0.39 0.5 -0.42 0.48 -0.43 0.46 -0.46 0.43 -0.48 0.42 -0.5 0.39 -0.51 0.37 -0.54 0.34 -0.55 0.32 -0.57 0.29 -0.59 0.27 -0.6 0.24 -0.61 0.21 -0.63 0.18 -0.63 0.14 -0.65 0.12 -0.67 0.09 -0.67 0.05 -0.67 0.01 0 0zm-12.29 -7.24l12.29 0 0 7.24 -12.29 0 0 0 0 -7.24zm-13.21 -5.96l7.24 0 0 0 0.01 0.31 0.02 0.3 0.04 0.29 0.05 0.29 0.07 0.29 0.08 0.28 0.09 0.28 0.11 0.26 0.12 0.27 0.13 0.25 0.15 0.26 0.15 0.24 0.17 0.23 0.18 0.23 0.19 0.22 0.2 0.21 0.21 0.2 0.21 0.19 0.23 0.17 0.24 0.17 0.24 0.16 0.25 0.14 0.26 0.13 0.25 0.12 0.28 0.11 0.27 0.09 0.28 0.08 0.29 0.07 0.29 0.05 0.3 0.04 0.3 0.02 0.31 0.01 0 7.24 -0.68 -0.01 -0.67 -0.05 -0.66 -0.09 -0.65 -0.12 -0.64 -0.14 -0.63 -0.18 -0.61 -0.21 -0.6 -0.24 -0.59 -0.27 -0.57 -0.29 -0.55 -0.32 -0.54 -0.34 -0.51 -0.37 -0.5 -0.39 -0.48 -0.42 -0.45 -0.43 -0.44 -0.46 -0.42 -0.48 -0.39 -0.5 -0.37 -0.51 -0.34 -0.54 -0.32 -0.55 -0.29 -0.57 -0.27 -0.58 -0.23 -0.61 -0.21 -0.61 -0.18 -0.63 -0.15 -0.64 -0.12 -0.65 -0.08 -0.66 -0.05 -0.67 -0.02 -0.67 0 0zm3.62 0l0 0 0 0 0 0 -3.62 0 3.62 0zm9.59 -13.21l0 7.24 0 0 -0.31 0.01 -0.3 0.02 -0.3 0.04 -0.29 0.06 -0.29 0.06 -0.28 0.08 -0.27 0.1 -0.27 0.1 -0.26 0.12 -0.26 0.13 -0.25 0.15 -0.25 0.15 -0.23 0.17 -0.23 0.18 -0.22 0.19 -0.2 0.2 -0.2 0.21 -0.19 0.21 -0.18 0.23 -0.17 0.23 -0.15 0.25 -0.15 0.25 -0.13 0.26 -0.12 0.26 -0.11 0.27 -0.09 0.27 -0.08 0.28 -0.07 0.29 -0.05 0.29 -0.04 0.3 -0.02 0.3 -0.01 0.31 -7.24 0 0.02 -0.68 0.05 -0.66 0.08 -0.67 0.12 -0.65 0.15 -0.63 0.18 -0.63 0.21 -0.62 0.23 -0.6 0.27 -0.59 0.29 -0.56 0.32 -0.55 0.34 -0.54 0.37 -0.52 0.39 -0.5 0.42 -0.48 0.44 -0.45 0.45 -0.44 0.48 -0.41 0.5 -0.39 0.52 -0.38 0.53 -0.34 0.55 -0.31 0.57 -0.3 0.59 -0.26 0.6 -0.24 0.62 -0.21 0.62 -0.18 0.64 -0.15 0.65 -0.12 0.66 -0.08 0.67 -0.05 0.68 -0.02 0 0z"/>
     <path id="1" class="fil4" d="M144.39 55.65l12.29 0c5.27,0 9.58,4.31 9.58,9.59l0 0c0,5.27 -4.31,9.58 -9.58,9.58l-12.29 0c-5.28,0 -9.59,-4.31 -9.59,-9.58l0 0c0,-5.28 4.31,-9.59 9.59,-9.59z"/>
    </g>
    <g>
     <path class="fil1" d="M153.67 39.35l-6.93 0 0 -7.19 6.93 0 0 0 0 7.19zm8.12 0.91l-7.24 0 0 0 0 -0.05 -0.01 -0.05 0 -0.04 -0.01 -0.05 -0.01 -0.04 -0.01 -0.04 -0.02 -0.05 -0.01 -0.03 -0.02 -0.04 -0.02 -0.05 -0.02 -0.03 -0.02 -0.04 -0.04 -0.04 -0.02 -0.04 -0.02 -0.02 -0.04 -0.04 -0.03 -0.03 -0.03 -0.02 -0.04 -0.04 -0.04 -0.02 -0.03 -0.02 -0.04 -0.03 -0.04 -0.01 -0.04 -0.02 -0.03 -0.02 -0.03 -0.01 -0.05 -0.01 -0.04 -0.01 -0.04 -0.01 -0.04 0 -0.04 -0.01 -0.05 0 0 -7.19 0.42 0.01 0.41 0.03 0.41 0.05 0.41 0.08 0.38 0.09 0.39 0.1 0.39 0.14 0.37 0.14 0.35 0.17 0.36 0.18 0.33 0.19 0.34 0.22 0.31 0.22 0.3 0.24 0.3 0.25 0.28 0.27 0.27 0.28 0.25 0.3 0.25 0.31 0.22 0.31 0.2 0.32 0.2 0.35 0.18 0.34 0.16 0.36 0.15 0.37 0.13 0.37 0.11 0.39 0.09 0.4 0.07 0.39 0.05 0.41 0.03 0.4 0.01 0.42 0 0zm-7.24 0l0 0 7.24 0 0 0 0 0 -7.24 0zm-0.88 8.1l0 -7.2 0 0 0.05 0 0.04 0 0.04 -0.01 0.04 -0.01 0.04 -0.01 0.05 -0.01 0.03 -0.01 0.03 -0.01 0.04 -0.02 0.04 -0.02 0.04 -0.02 0.03 -0.02 0.04 -0.03 0.04 -0.03 0.03 -0.03 0.03 -0.03 0.04 -0.03 0.02 -0.04 0.02 -0.02 0.04 -0.05 0.02 -0.04 0.02 -0.03 0.02 -0.04 0.02 -0.04 0.02 -0.04 0.01 -0.05 0.01 -0.03 0.01 -0.04 0.01 -0.05 0 -0.05 0.01 -0.04 0 -0.05 7.24 0 -0.01 0.41 -0.03 0.41 -0.05 0.41 -0.07 0.39 -0.09 0.39 -0.11 0.39 -0.13 0.37 -0.14 0.37 -0.17 0.36 -0.18 0.35 -0.2 0.35 -0.2 0.32 -0.22 0.31 -0.25 0.31 -0.25 0.29 -0.27 0.28 -0.28 0.27 -0.3 0.26 -0.3 0.23 -0.31 0.23 -0.34 0.21 -0.33 0.2 -0.36 0.18 -0.35 0.16 -0.37 0.15 -0.39 0.13 -0.39 0.11 -0.38 0.09 -0.41 0.07 -0.41 0.05 -0.41 0.04 -0.42 0.01 0 0zm-6.93 -7.2l6.93 0 0 7.2 -6.93 0 0 0 0 -7.2zm-8.13 -0.9l7.25 0 0 0 0 0.05 0 0.04 0.01 0.05 0 0.04 0.02 0.05 0.01 0.04 0.01 0.03 0.02 0.05 0.01 0.04 0.02 0.03 0.03 0.05 0.02 0.03 0.03 0.04 0.02 0.03 0.04 0.04 0.02 0.03 0.04 0.03 0.03 0.03 0.04 0.03 0.03 0.03 0.04 0.02 0.04 0.02 0.03 0.02 0.04 0.02 0.04 0.01 0.03 0.01 0.04 0.01 0.05 0.01 0.04 0.01 0.04 0.01 0.04 0 0.05 0 0 7.2 -0.42 -0.01 -0.41 -0.04 -0.41 -0.05 -0.41 -0.07 -0.39 -0.09 -0.38 -0.11 -0.39 -0.13 -0.37 -0.15 -0.36 -0.16 -0.35 -0.18 -0.33 -0.2 -0.34 -0.21 -0.31 -0.22 -0.31 -0.24 -0.29 -0.26 -0.28 -0.27 -0.27 -0.28 -0.25 -0.29 -0.24 -0.31 -0.23 -0.31 -0.21 -0.33 -0.19 -0.33 -0.19 -0.36 -0.16 -0.36 -0.14 -0.36 -0.13 -0.38 -0.11 -0.39 -0.09 -0.38 -0.07 -0.4 -0.06 -0.41 -0.03 -0.41 -0.01 -0.41 0 0zm7.25 0l0 0 -7.25 0 0 0 0 0 7.25 0zm0.88 -8.1l0 7.19 0 0 -0.05 0 -0.04 0.01 -0.04 0 -0.04 0.01 -0.05 0.01 -0.04 0.01 -0.03 0.01 -0.04 0.02 -0.04 0.02 -0.03 0.01 -0.04 0.03 -0.04 0.02 -0.03 0.03 -0.04 0.03 -0.03 0.02 -0.04 0.03 -0.02 0.03 -0.03 0.03 -0.03 0.04 -0.03 0.04 -0.02 0.04 -0.03 0.04 -0.02 0.04 -0.01 0.04 -0.02 0.04 -0.01 0.03 -0.01 0.05 -0.02 0.05 0 0.04 -0.01 0.04 0 0.05 0 0.05 -7.25 0 0.01 -0.42 0.03 -0.4 0.06 -0.41 0.07 -0.4 0.09 -0.39 0.11 -0.38 0.13 -0.38 0.14 -0.37 0.16 -0.36 0.19 -0.35 0.19 -0.33 0.21 -0.33 0.23 -0.32 0.23 -0.3 0.26 -0.3 0.27 -0.28 0.28 -0.27 0.29 -0.25 0.31 -0.24 0.31 -0.22 0.34 -0.22 0.33 -0.19 0.35 -0.18 0.36 -0.17 0.37 -0.14 0.39 -0.13 0.38 -0.11 0.39 -0.09 0.41 -0.08 0.41 -0.05 0.41 -0.03 0.42 -0.01 0 0z"/>
     <path id="1" class="fil4" d="M146.74 35.76l6.93 0c2.48,0 4.5,2.02 4.5,4.5l0 0c0,2.47 -2.02,4.5 -4.5,4.5l-6.93 0c-2.48,0 -4.51,-2.03 -4.51,-4.5l0 0c0,-2.48 2.03,-4.5 4.51,-4.5z"/>
    </g>
    <g>
     <path class="fil1" d="M183.4 68.83l-65.51 0 0 -4.13 65.51 0 3.61 2.06 -3.61 2.07zm0 -4.13c1.99,0 3.61,0.92 3.61,2.06 0,1.14 -1.62,2.07 -3.61,2.07l0 -4.13zm-3.61 5.79l0 -3.73 7.22 0 0 3.73 -3.61 2.07 -3.61 -2.07zm7.22 0c0,1.14 -1.62,2.07 -3.61,2.07 -1.99,0 -3.61,-0.93 -3.61,-2.07l7.22 0zm-69.12 -2.06l65.51 0 0 4.13 -65.51 0 -3.62 -2.07 3.62 -2.06zm0 4.13c-2,0 -3.62,-0.93 -3.62,-2.07 0,-1.14 1.62,-2.06 3.62,-2.06l0 4.13zm3.61 -5.8l0 3.73 -7.23 0 0 -3.73 3.62 -2.06 3.61 2.06zm-7.23 0c0,-1.14 1.62,-2.06 3.62,-2.06 1.99,0 3.61,0.92 3.61,2.06l-7.23 0z"/>
     <polygon id="1" class="fil4" points="117.89,66.76 183.4,66.76 183.4,70.49 117.89,70.49 "/>
    </g>
   </g>
  </g>
 </g>
</svg>
