<?xml version="1.0" encoding="UTF-8"?>
<!DOCTYPE svg PUBLIC "-//W3C//DTD SVG 1.1//EN" "http://www.w3.org/Graphics/SVG/1.1/DTD/svg11.dtd">
<!-- Creator: CorelDRAW 2020 (64-Bit) -->
<svg xmlns="http://www.w3.org/2000/svg" xml:space="preserve" width="638px" height="284px" version="1.1" style="shape-rendering:geometricPrecision; text-rendering:geometricPrecision; image-rendering:optimizeQuality; fill-rule:evenodd; clip-rule:evenodd"
viewBox="0 0 638 283.7"
 xmlns:xlink="http://www.w3.org/1999/xlink"
 xmlns:xodm="http://www.corel.com/coreldraw/odm/2003">
 <defs>
  <style type="text/css">
   <![CDATA[
    .fil0 {fill:black;fill-rule:nonzero}
   ]]>
  </style>
 </defs>
 <g id="Capa_x0020_1">
  <metadata id="CorelCorpID_0Corel-Layer"/>
  <g id="_2744534580160">
   <path class="fil0" d="M51.06 196.3l0 85.56 -22.29 0 0 -35.91 -6.49 0 0 35.91 -22.28 0 0 -85.56 22.28 0 0 30.61 6.49 0 0 -30.61 22.29 0zm8.99 0l37.1 0 0 17.09 -14.82 0 0 16.33 13.85 0 0 16.23 -13.85 0 0 18.82 16.34 0 0 17.09 -38.62 0 0 -85.56zm44.95 0l15.73 0c10.5,0 17.6,0.4 21.31,1.21 3.72,0.81 6.75,2.88 9.09,6.22 2.34,3.31 3.51,8.63 3.51,15.92 0,6.65 -0.83,11.12 -2.48,13.41 -1.64,2.29 -4.91,3.66 -9.78,4.11 4.4,1.1 7.38,2.56 8.89,4.4 1.52,1.82 2.45,3.51 2.82,5.05 0.37,1.53 0.55,5.75 0.55,12.65l0 22.59 -20.66 0 0 -28.47c0,-4.58 -0.36,-7.41 -1.08,-8.51 -0.7,-1.09 -2.58,-1.64 -5.62,-1.64l0 38.62 -22.28 0 0 -85.56zm22.28 14.6l0 19.04c2.49,0 4.22,-0.34 5.21,-1.03 0.99,-0.68 1.49,-2.92 1.49,-6.69l0 -4.7c0,-2.72 -0.48,-4.51 -1.44,-5.36 -0.95,-0.84 -2.72,-1.26 -5.26,-1.26zm35.96 -14.6l15.74 0c10.49,0 17.6,0.4 21.31,1.21 3.71,0.81 6.74,2.88 9.09,6.22 2.34,3.31 3.51,8.63 3.51,15.92 0,6.65 -0.83,11.12 -2.49,13.41 -1.64,2.29 -4.9,3.66 -9.77,4.11 4.4,1.1 7.38,2.56 8.89,4.4 1.51,1.82 2.45,3.51 2.81,5.05 0.38,1.53 0.56,5.75 0.56,12.65l0 22.59 -20.66 0 0 -28.47c0,-4.58 -0.36,-7.41 -1.08,-8.51 -0.7,-1.09 -2.58,-1.64 -5.62,-1.64l0 38.62 -22.29 0 0 -85.56zm22.29 14.6l0 19.04c2.48,0 4.21,-0.34 5.21,-1.03 0.99,-0.68 1.49,-2.92 1.49,-6.69l0 -4.7c0,-2.72 -0.48,-4.51 -1.44,-5.36 -0.96,-0.84 -2.72,-1.26 -5.26,-1.26zm74.34 -14.6l12.73 85.56 -22.73 0 -1.21 -15.36 -8.02 0 -1.21 15.36 -23.02 0 11.28 -85.56 32.18 0zm-11.81 55.06c-1.06,-9.7 -2.18,-21.71 -3.37,-36.04 -2.2,16.44 -3.58,28.45 -4.18,36.04l7.55 0zm96.94 -55.06l0 85.56 -19.47 0 -0.05 -57.76 -7.74 57.76 -13.63 0 -8.16 -56.46 -0.06 56.46 -19.47 0 0 -85.56 28.76 0c0.81,5.17 1.69,11.27 2.65,18.23l3.15 21.72 5.07 -39.95 28.95 0zm31.24 0l0 85.56 -22.28 0 0 -85.56 22.28 0zm8.89 0l37.1 0 0 17.09 -14.82 0 0 16.33 13.85 0 0 16.23 -13.85 0 0 18.82 16.34 0 0 17.09 -38.62 0 0 -85.56zm94.59 0l0 85.56 -19.47 0 -11.57 -38.9 0 38.9 -18.61 0 0 -85.56 18.61 0 12.44 38.53 0 -38.53 18.6 0zm53.71 0l0 17.09 -13.09 0 0 68.47 -22.28 0 0 -68.47 -13.2 0 0 -17.09 48.57 0zm39.12 0l12.73 85.56 -22.74 0 -1.2 -15.36 -8.03 0 -1.2 15.36 -23.03 0 11.29 -85.56 32.18 0zm-11.81 55.06c-1.06,-9.7 -2.18,-21.71 -3.37,-36.04 -2.2,16.44 -3.59,28.45 -4.18,36.04l7.55 0zm75.41 -29.1l-20.66 0 0 -6.33c0,-2.95 -0.27,-4.85 -0.79,-5.66 -0.52,-0.81 -1.39,-1.21 -2.62,-1.21 -1.33,0 -2.34,0.54 -3.03,1.64 -0.68,1.08 -1.02,2.73 -1.02,4.94 0,2.85 0.39,5 1.17,6.44 0.76,1.42 2.85,3.17 6.29,5.23 9.86,5.89 16.08,10.74 18.64,14.51 2.58,3.77 3.86,9.84 3.86,18.21 0,6.09 -0.72,10.58 -2.15,13.48 -1.42,2.89 -4.16,5.3 -8.25,7.25 -4.08,1.96 -8.82,2.94 -14.24,2.94 -5.95,0 -11.02,-1.14 -15.24,-3.39 -4.2,-2.25 -6.94,-5.12 -8.25,-8.6 -1.3,-3.5 -1.95,-8.45 -1.95,-14.86l0 -5.6 20.66 0 0 10.4c0,3.21 0.29,5.26 0.86,6.18 0.58,0.92 1.61,1.37 3.09,1.37 1.47,0 2.57,-0.57 3.29,-1.74 0.73,-1.16 1.09,-2.89 1.09,-5.16 0,-5.03 -0.69,-8.33 -2.06,-9.86 -1.42,-1.55 -4.88,-4.15 -10.4,-7.79 -5.52,-3.66 -9.16,-6.33 -10.96,-7.99 -1.79,-1.65 -3.28,-3.94 -4.45,-6.86 -1.18,-2.93 -1.77,-6.66 -1.77,-11.2 0,-6.54 0.83,-11.34 2.51,-14.37 1.67,-3.03 4.36,-5.39 8.09,-7.1 3.73,-1.71 8.22,-2.56 13.5,-2.56 5.77,0 10.67,0.94 14.75,2.79 4.06,1.88 6.74,4.22 8.06,7.07 1.31,2.83 1.98,7.64 1.98,14.44l0 3.39z"/>
   <path class="fil0" d="M80.64 3.21l23.61 158.74 -42.17 0 -2.24 -28.5 -14.89 0 -2.24 28.5 -42.71 0 20.94 -158.74 59.7 0zm-21.91 102.15c-1.97,-18 -4.04,-40.27 -6.25,-66.86 -4.08,30.5 -6.66,52.77 -7.76,66.86l14.01 0zm93.96 -102.15l0 127.03 24.88 0 0 31.71 -66.22 0 0 -158.74 41.34 0zm126.06 158.74l0 19.26 -31.01 0c-7.46,0 -12.74,-0.6 -15.78,-1.77 -3.05,-1.17 -5.12,-2.91 -6.19,-5.18 -1.07,-2.28 -1.61,-6.39 -1.61,-12.31 -9.36,-0.27 -17.39,-2.71 -24.15,-7.36 -6.75,-4.62 -11.2,-10.54 -13.34,-17.66 -2.18,-7.16 -3.25,-17.86 -3.25,-32.11l0 -49.07c0,-10.8 0.64,-18.99 1.91,-24.65 1.27,-5.65 3.91,-10.97 7.89,-15.95 3.98,-5.02 9.1,-8.8 15.36,-11.34 6.25,-2.54 13.21,-3.81 20.83,-3.81 9.2,0 17.43,1.57 24.62,4.71 7.23,3.15 12.61,7.13 16.16,11.95 3.54,4.84 5.88,9.86 6.95,15.05 1.07,5.21 1.61,12.94 1.61,23.17l0 51.58c0,14.11 -0.7,23.71 -2.08,28.73 -1.37,5.05 -3.98,9.03 -7.86,12.01 -3.91,2.97 -9.09,5.25 -15.55,6.82 0.2,3.48 0.94,5.69 2.21,6.59 1.27,0.9 4.28,1.34 9.03,1.34l14.25 0zm-41.34 -117.83c0,-7.36 -0.4,-12.08 -1.21,-14.15 -0.8,-2.04 -2.44,-3.08 -4.91,-3.08 -2.11,0 -3.72,0.84 -4.85,2.51 -1.11,1.64 -1.68,6.55 -1.68,14.72l0 74.08c0,9.2 0.37,14.88 1.11,17.02 0.73,2.18 2.44,3.25 5.12,3.25 2.74,0 4.51,-1.24 5.28,-3.71 0.77,-2.48 1.14,-8.4 1.14,-17.73l0 -72.91zm150.57 -40.91l0 106.13c0,12.04 -0.4,20.5 -1.17,25.35 -0.8,4.88 -3.11,9.9 -6.95,15.02 -3.85,5.15 -8.93,9.03 -15.22,11.67 -6.32,2.64 -13.75,3.98 -22.31,3.98 -9.47,0 -17.83,-1.57 -25.05,-4.72 -7.26,-3.14 -12.68,-7.22 -16.26,-12.24 -3.61,-5.05 -5.72,-10.37 -6.38,-15.95 -0.64,-5.59 -0.97,-17.36 -0.97,-35.25l0 -93.99 41.34 0 0 119.07c0,6.92 0.36,11.37 1.1,13.28 0.73,1.94 2.24,2.91 4.48,2.91 2.54,0 4.21,-1.07 4.95,-3.18 0.74,-2.14 1.1,-7.16 1.1,-15.05l0 -117.03 41.34 0zm57.37 0l0 158.74 -41.34 0 0 -158.74 41.34 0zm57.83 0l0 127.03 24.88 0 0 31.71 -66.22 0 0 -158.74 41.34 0zm111.21 0l23.61 158.74 -42.18 0 -2.24 -28.5 -14.88 0 -2.24 28.5 -42.71 0 20.93 -158.74 59.71 0zm-21.91 102.15c-1.97,-18 -4.05,-40.27 -6.26,-66.86 -4.08,30.5 -6.65,52.77 -7.76,66.86l14.02 0z"/>
  </g>
 </g>
</svg>
